<?xml version="1.0" standalone="no"?>
<!DOCTYPE svg PUBLIC "-//W3C//DTD SVG 20010904//EN"
 "http://www.w3.org/TR/2001/REC-SVG-20010904/DTD/svg10.dtd">
<svg version="1.0" xmlns="http://www.w3.org/2000/svg"
 width="512.000000pt" height="512.000000pt" viewBox="0 0 512.000000 512.000000"
 preserveAspectRatio="xMidYMid meet">

<g transform="translate(0.000000,512.000000) scale(0.100000,-0.100000)"
fill="#000000" stroke="none">
<path d="M2093 4129 c-239 -239 -736 -738 -1104 -1110 -567 -574 -669 -681
-669 -705 0 -23 27 -55 143 -171 118 -118 148 -143 172 -143 23 0 55 26 177
147 l148 147 0 -842 0 -843 25 -24 24 -25 1551 0 1551 0 24 25 25 24 0 843 0
842 148 -147 c122 -121 154 -147 177 -147 24 0 54 25 172 143 116 116 143 148
143 171 0 23 -65 94 -400 433 l-400 405 0 559 0 560 -25 24 -24 25 -271 0
-271 0 -24 -25 -25 -24 0 -238 0 -238 -378 378 c-336 336 -382 378 -416 384
l-38 6 -435 -434z m1489 -786 c560 -560 1018 -1022 1018 -1028 0 -13 -102
-115 -116 -115 -6 0 -428 420 -937 934 -531 535 -939 939 -957 946 -24 10 -36
10 -60 0 -18 -7 -425 -411 -957 -946 -509 -514 -931 -934 -937 -934 -14 0
-116 101 -116 115 0 10 2030 2045 2040 2045 3 0 463 -458 1022 -1017z m258
395 l0 -423 -160 160 -160 160 0 262 0 263 160 0 160 0 0 -422z m-558 -565
l718 -718 0 -867 0 -868 -1440 0 -1440 0 0 867 0 868 717 717 c395 395 720
718 723 718 3 0 328 -323 722 -717z"/>
<path d="M2005 2766 c-223 -150 -308 -448 -189 -666 14 -25 67 -92 119 -148
121 -132 140 -171 140 -282 0 -70 -5 -94 -25 -135 -23 -48 -92 -124 -173 -191
-46 -38 -50 -82 -12 -119 36 -37 74 -32 133 15 154 121 229 248 239 405 10
155 -31 250 -179 411 -112 122 -133 164 -133 269 1 127 54 224 162 302 69 49
83 76 63 124 -25 59 -73 64 -145 15z"/>
<path d="M2565 2766 c-223 -150 -308 -448 -189 -666 14 -25 67 -92 119 -148
121 -132 140 -171 140 -282 0 -70 -5 -94 -25 -135 -23 -48 -92 -124 -173 -191
-46 -38 -50 -82 -12 -119 36 -37 74 -32 133 15 154 121 229 248 239 405 10
155 -31 250 -179 411 -112 122 -133 164 -133 269 1 127 55 227 167 306 64 44
77 72 58 120 -25 59 -73 64 -145 15z"/>
<path d="M3125 2766 c-223 -150 -308 -448 -189 -666 14 -25 67 -92 119 -148
121 -132 140 -171 140 -282 0 -70 -5 -94 -25 -135 -23 -48 -92 -124 -173 -191
-46 -38 -50 -82 -12 -119 36 -37 74 -32 133 15 154 121 229 248 239 405 10
155 -31 250 -179 411 -112 122 -133 164 -133 269 1 127 55 227 167 306 64 44
77 72 58 120 -25 59 -73 64 -145 15z"/>
</g>
</svg>
