<?xml version="1.0" standalone="no"?>
<!DOCTYPE svg PUBLIC "-//W3C//DTD SVG 20010904//EN"
 "http://www.w3.org/TR/2001/REC-SVG-20010904/DTD/svg10.dtd">
<svg version="1.0" xmlns="http://www.w3.org/2000/svg"
 width="500.000000pt" height="88.000000pt" viewBox="0 0 500.000000 88.000000"
 preserveAspectRatio="xMidYMid meet">

<g transform="translate(0.000000,88.000000) scale(0.100000,-0.100000)"
fill="#000000" stroke="none">
<path d="M2320 495 l0 -335 44 0 45 0 3 176 3 176 33 29 c27 24 41 29 86 29
48 0 57 -3 80 -31 26 -30 26 -32 26 -205 l0 -174 43 0 42 0 -2 187 c-2 115 -7
198 -14 216 -19 46 -88 80 -163 80 -39 0 -77 -7 -96 -17 -18 -9 -35 -16 -37
-16 -1 0 -3 50 -3 110 l0 110 -45 0 -45 0 0 -335z"/>
<path d="M1660 766 l0 -46 46 0 45 0 -3 43 c-3 42 -3 42 -45 45 l-43 3 0 -45z"/>
<path d="M4350 714 l0 -86 -25 4 c-23 5 -25 2 -25 -33 0 -37 2 -39 30 -39 l30
0 0 -180 c0 -180 0 -181 25 -206 22 -22 32 -25 88 -22 l62 3 3 41 3 40 -34 -4
c-61 -7 -67 9 -67 179 l0 149 50 0 50 0 0 40 0 40 -50 0 -50 0 0 80 0 80 -45
0 -45 0 0 -86z"/>
<path d="M1276 635 c-53 -19 -112 -79 -131 -133 -18 -54 -20 -140 -3 -193 15
-51 70 -114 121 -140 50 -26 137 -28 192 -5 36 15 115 81 115 96 0 4 -15 14
-34 23 l-35 16 -34 -34 c-43 -43 -93 -53 -152 -30 -52 19 -87 62 -89 108 l-1
32 173 3 172 2 0 48 c0 154 -149 259 -294 207z m134 -68 c29 -15 70 -72 70
-98 0 -18 -10 -19 -130 -19 -143 0 -143 0 -112 59 32 60 114 88 172 58z"/>
<path d="M1660 406 l0 -246 45 0 45 0 -2 243 -3 242 -42 3 -43 3 0 -245z"/>
<path d="M1951 638 c-93 -26 -137 -110 -99 -192 18 -41 52 -56 164 -70 111
-15 144 -31 144 -70 -1 -47 -46 -76 -119 -76 -60 0 -97 13 -132 46 l-27 26
-36 -24 c-20 -13 -36 -26 -36 -30 0 -3 17 -21 38 -38 105 -87 313 -74 372 23
31 50 35 91 14 134 -26 52 -81 78 -186 88 -92 8 -114 16 -123 45 -24 75 127
109 209 46 l36 -27 30 22 c16 13 30 26 30 30 0 14 -61 51 -107 65 -52 16 -122
17 -172 2z"/>
<path d="M3975 638 c-11 -6 -30 -20 -42 -31 l-23 -20 0 24 c0 21 -4 24 -40 24
l-40 0 0 -302 0 -303 40 0 40 0 0 85 c0 47 2 85 5 85 3 0 19 -9 34 -21 32 -24
102 -35 156 -25 44 9 100 56 127 110 30 58 37 181 13 242 -20 53 -66 109 -106
130 -33 17 -135 18 -164 2z m135 -84 c47 -40 63 -80 63 -155 0 -48 -6 -76 -19
-100 -58 -99 -174 -99 -227 2 -27 52 -21 182 12 227 42 59 118 70 171 26z"/>
<path d="M481 623 c0 -10 24 -117 52 -238 l53 -220 54 0 54 0 40 162 c23 89
44 164 48 168 3 4 23 -65 43 -152 20 -87 39 -164 41 -171 3 -9 20 -12 56 -10
l52 3 58 220 c31 121 57 228 58 238 0 13 -8 17 -35 17 -39 0 -32 16 -86 -200
-18 -69 -35 -129 -39 -133 -4 -5 -22 54 -40 130 -17 76 -35 152 -39 168 -7 28
-11 30 -58 33 l-51 3 -16 -53 c-8 -29 -27 -100 -41 -158 -15 -57 -30 -111 -35
-119 -10 -18 -9 -19 -50 159 -17 74 -33 143 -36 153 -4 12 -16 17 -45 17 -31
0 -39 -4 -38 -17z"/>
<path d="M2903 621 c-44 -21 -73 -62 -73 -106 0 -22 4 -25 38 -25 34 0 39 3
50 34 19 51 98 72 169 45 32 -12 43 -26 43 -56 0 -33 -34 -50 -139 -68 -136
-23 -175 -52 -187 -138 -12 -84 39 -147 128 -162 57 -10 121 2 163 31 43 29
45 29 45 4 0 -17 7 -20 43 -20 l42 0 -3 192 c-4 216 -9 236 -72 269 -49 27
-188 26 -247 0z m232 -282 c-9 -64 -42 -102 -104 -119 -93 -25 -164 30 -135
105 9 24 51 41 129 54 39 7 77 16 85 21 24 15 33 -5 25 -61z"/>
<path d="M3320 453 c0 -159 3 -193 18 -222 28 -56 63 -75 145 -79 64 -3 76 -1
110 22 46 31 47 31 47 6 0 -17 7 -20 43 -20 l42 0 -3 237 -3 238 -39 0 -40 0
0 -135 c-1 -173 -9 -217 -49 -252 -39 -35 -115 -39 -152 -9 -23 19 -24 25 -29
208 l-5 188 -42 3 -43 3 0 -188z"/>
<path d="M7 393 c-19 -18 7 -22 168 -25 161 -3 175 -2 175 15 0 15 -15 17
-168 17 -93 0 -172 -3 -175 -7z"/>
<path d="M4650 385 c0 -12 29 -15 170 -17 156 -3 170 -2 170 15 0 15 -15 17
-170 17 -142 0 -170 -2 -170 -15z"/>
</g>
</svg>
