<?xml version="1.0" standalone="no"?>
<!DOCTYPE svg PUBLIC "-//W3C//DTD SVG 20010904//EN"
 "http://www.w3.org/TR/2001/REC-SVG-20010904/DTD/svg10.dtd">
<svg version="1.0" xmlns="http://www.w3.org/2000/svg"
 width="512.000000pt" height="512.000000pt" viewBox="0 0 512.000000 512.000000"
 preserveAspectRatio="xMidYMid meet">

<g transform="translate(0.000000,512.000000) scale(0.100000,-0.100000)"
fill="#000000" stroke="none">
<path d="M1028 4945 c-144 -24 -310 -92 -428 -176 -74 -52 -192 -170 -245
-244 -90 -127 -155 -284 -180 -440 -22 -134 -22 -2916 0 -3050 17 -107 49
-203 100 -305 51 -102 86 -151 173 -242 165 -172 360 -276 587 -313 138 -23
2921 -22 3051 0 113 20 198 47 299 98 107 53 155 87 247 175 172 165 273 353
313 586 22 130 23 2913 0 3051 -26 158 -97 329 -188 451 -54 71 -183 196 -249
242 -116 80 -277 144 -423 167 -125 21 -2936 20 -3057 0z m3047 -160 c336 -59
605 -309 698 -650 l22 -80 0 -1495 0 -1495 -22 -80 c-77 -281 -269 -498 -534
-604 -159 -64 -106 -62 -1720 -59 l-1464 3 -75 22 c-342 100 -587 365 -645
698 -23 132 -23 2898 0 3030 49 282 247 533 511 650 58 26 179 60 239 68 17 2
676 5 1466 6 1251 1 1448 -1 1524 -14z"/>
<path d="M1005 4548 c-27 -5 -86 -27 -131 -48 -152 -73 -274 -232 -303 -394
-7 -40 -11 -417 -11 -1138 l0 -1079 25 -24 24 -25 1951 0 1951 0 25 25 25 25
-3 1112 -3 1113 -26 66 c-37 94 -70 148 -133 212 -62 63 -119 99 -215 136
l-66 26 -1530 1 c-930 1 -1550 -2 -1580 -8z m3167 -190 c91 -45 147 -103 191
-196 l32 -67 3 -1047 2 -1048 -1840 0 -1840 0 2 1048 3 1047 32 67 c17 37 50
87 72 111 44 48 135 101 197 116 23 5 661 9 1555 8 l1515 -2 76 -37z"/>
<path d="M3545 4055 c-16 -15 -25 -36 -25 -55 0 -19 9 -40 25 -55 15 -16 36
-25 55 -25 19 0 40 9 55 25 16 15 25 36 25 55 0 19 -9 40 -25 55 -15 16 -36
25 -55 25 -19 0 -40 -9 -55 -25z"/>
<path d="M1305 3975 c-16 -15 -25 -36 -25 -55 0 -19 9 -40 25 -55 l24 -25 296
0 295 0 0 -280 0 -280 -295 0 -296 0 -24 -25 -25 -24 0 -391 0 -391 25 -24 24
-25 351 0 351 0 24 25 c33 32 33 78 0 110 l-24 25 -296 0 -295 0 0 280 0 280
295 0 296 0 24 25 25 24 0 391 0 391 -25 24 -24 25 -351 0 -351 0 -24 -25z"/>
<path d="M2345 3975 c-16 -15 -25 -36 -25 -55 0 -19 9 -40 25 -55 l24 -25 296
0 295 0 0 -280 0 -280 -295 0 -296 0 -24 -25 -25 -24 0 -391 0 -391 25 -24 24
-25 351 0 351 0 24 25 c33 32 33 78 0 110 l-24 25 -296 0 -295 0 0 280 0 280
295 0 296 0 24 25 25 24 0 391 0 391 -25 24 -24 25 -351 0 -351 0 -24 -25z"/>
<path d="M3545 3735 c-16 -15 -25 -36 -25 -55 0 -19 9 -40 25 -55 15 -16 36
-25 55 -25 19 0 40 9 55 25 16 15 25 36 25 55 0 19 -9 40 -25 55 -15 16 -36
25 -55 25 -19 0 -40 -9 -55 -25z"/>
<path d="M3520 3427 c-49 -16 -133 -102 -148 -153 -28 -94 -8 -169 63 -239 51
-52 102 -75 165 -75 63 0 114 23 165 75 98 97 101 222 8 325 -65 72 -158 97
-253 67z m135 -172 c16 -15 25 -36 25 -55 0 -19 -9 -40 -25 -55 -15 -16 -36
-25 -55 -25 -19 0 -40 9 -55 25 -16 15 -25 36 -25 55 0 19 9 40 25 55 15 16
36 25 55 25 19 0 40 -9 55 -25z"/>
<path d="M3545 2775 c-16 -15 -25 -36 -25 -55 0 -19 9 -40 25 -55 15 -16 36
-25 55 -25 19 0 40 9 55 25 16 15 25 36 25 55 0 19 -9 40 -25 55 -15 16 -36
25 -55 25 -19 0 -40 -9 -55 -25z"/>
<path d="M3545 2455 c-50 -49 -15 -135 55 -135 41 0 80 39 80 80 0 41 -39 80
-80 80 -19 0 -40 -9 -55 -25z"/>
<path d="M1475 1509 c-142 -24 -270 -92 -381 -203 -128 -128 -197 -276 -210
-450 -7 -82 -6 -85 21 -111 26 -27 29 -28 111 -21 174 13 319 81 449 211 130
130 198 275 211 449 7 81 6 85 -19 110 -22 22 -35 26 -79 25 -29 -1 -75 -5
-103 -10z m35 -174 c0 -24 -45 -140 -73 -188 -39 -66 -135 -158 -203 -194 -68
-36 -171 -70 -181 -60 -10 10 24 113 60 181 36 68 128 164 194 203 51 29 158
72 186 72 9 1 17 -6 17 -14z"/>
<path d="M2159 1349 c-118 -93 -220 -178 -226 -186 -21 -27 -15 -72 12 -98 46
-47 66 -38 264 120 99 80 185 145 191 145 6 0 92 -65 191 -145 198 -158 218
-167 264 -120 27 26 33 71 13 98 -7 8 -109 93 -227 186 -160 128 -220 171
-241 171 -21 0 -81 -43 -241 -171z"/>
<path d="M3674 1504 c-93 -33 -177 -148 -191 -262 -4 -35 -10 -52 -20 -52 -23
0 -86 -37 -115 -67 -110 -116 -78 -298 67 -376 38 -21 52 -22 345 -22 293 0
307 1 345 22 114 61 164 193 114 303 -11 25 -32 58 -47 73 -29 30 -92 67 -115
67 -10 0 -16 17 -20 52 -9 72 -59 169 -109 212 -72 62 -167 81 -254 50z m149
-174 c44 -38 60 -93 52 -178 -6 -58 -4 -70 13 -92 17 -22 27 -25 72 -23 76 3
119 -25 119 -77 0 -29 -15 -52 -46 -68 -30 -17 -516 -17 -546 0 -31 16 -46 39
-46 68 0 52 43 80 119 77 45 -2 55 1 72 23 17 22 19 34 13 92 -8 85 8 140 52
178 44 39 82 39 126 0z"/>
<path d="M2080 905 c0 -131 1 -137 25 -160 l24 -25 271 0 271 0 24 25 c24 23
25 29 25 160 l0 135 -80 0 -80 0 0 -80 0 -80 -160 0 -160 0 0 80 0 80 -80 0
-80 0 0 -135z"/>
</g>
</svg>
